# xmcd CD database file
#
# Track frame offsets:
#	150
#	16366
#	37877
#	54042
#
# Disc length: 1005 seconds
#
# Revision: 1
# Processed by: cddbd v1.5.2PL0 Copyright (c) Steve Scherf et al.
# Submitted via: CDex 1.70beta3
#
DISCID=2003eb04
DTITLE=イサドーラ・フィンスドッティル (阿澄佳奈) and シグルド・スヴェインソン・スヴァルトヘイズ (吉野裕行)/メルチェリーダ・ユグヴァール (皆口裕子) - アスタロッテのおもちゃ! キャラ
DTITLE=クターソングCD Vol. 5
DYEAR=2011
DGENRE=Anime
TTITLE0=阿澄佳奈／吉野裕行/スイッチ・オン!!!
TTITLE1=皆口裕子/Midnight Kiss
TTITLE2=スイッチ・オン!!! (Instrumental)
TTITLE3=Midnight Kiss (Instrumental)
EXTD=YEAR: 2011
EXTT0=
EXTT1=
EXTT2=
EXTT3=
PLAYORDER=
